<svg xmlns="http://www.w3.org/2000/svg" width="32" height="32" viewBox="0 0 32 32"><g><path fill="#F9D128" d="M25.863 12.075c1.155 2.91 1.02 6.31-.672 9.234-2.235 3.876-6.55 5.804-10.726 5.192l4.932-8.54c1.086-1.88.44-4.277-1.438-5.357-.613-.36-1.29-.53-1.957-.53h9.863z"/><path fill="#D84839" d="M25.863 12.075h-9.86c-1.356 0-2.675.708-3.4 1.97-.71 1.22-.68 2.683-.042 3.847L7.67 9.42c3.21-4.072 9.014-5.28 13.634-2.613 2.157 1.242 3.71 3.127 4.56 5.268z"/><path fill="#5AAF5A" d="M19.396 17.963l-4.932 8.54c-1.292-.19-2.568-.618-3.77-1.308-5.08-2.936-6.818-9.424-3.887-14.5.262-.458.55-.876.86-1.275l4.893 8.47.04.072c.333.577.82 1.08 1.44 1.434 1.874 1.084 4.273.44 5.356-1.433z"/><path fill="#4793C6" stroke="#fff" stroke-miterlimit="10" d="M17.92 12.604c1.878 1.08 2.522 3.477 1.438 5.358-1.082 1.873-3.482 2.518-5.357 1.434-.618-.354-1.104-.856-1.437-1.434l-.04-.07c-.64-1.165-.67-2.627.04-3.848.726-1.262 2.045-1.97 3.4-1.97.666 0 1.345.17 1.957.53z"/></g></svg>