<svg xmlns="http://www.w3.org/2000/svg" width="32" height="32" viewBox="0 0 32 32"><g fill="#151515"><path d="M20.26 6.186h-1.246l1.296 1.406v.67h-2.67v-.784h1.296L17.64 6.07V5.4h2.62zM17.11 6.186h-1.246l1.296 1.406v.67h-2.67v-.784h1.296L14.49 6.07V5.4h2.62zM13.99 6.217h-1.344v1.227h1.345v.818h-2.3V5.4h2.3z"/></g><path fill="#1673B6" d="M9.857 24.897L8.49 9.567h15.02l-1.37 15.328-6.15 1.705z"/><path fill="#35A9DB" d="M16 25.297l4.97-1.378 1.17-13.1H16z"/><path fill="#fff" d="M16 16.375h2.488l.172-1.925H16v-1.88h4.716l-.046.504-.463 5.18H16z"/><path fill="#EBEBEB" d="M16.01 21.258l-.007.002-2.094-.566-.135-1.5h-1.887l.263 2.953 3.852 1.07.01-.003z"/><path fill="#fff" d="M18.328 18.176l-.226 2.517-2.097.567v1.956l3.854-1.07.028-.316.327-3.654z"/><path fill="#EBEBEB" d="M16.006 12.57v1.88h-4.54l-.038-.423-.085-.953-.046-.505zM16 16.375V18.256H13.933l-.038-.422-.086-.953-.046-.505z"/></svg>