<svg xmlns="http://www.w3.org/2000/svg" width="32" height="32" viewBox="0 0 32 32"><path fill="#E45126" d="M9.857 24.897L8.49 9.567h15.02l-1.37 15.328-6.15 1.705z"/><path fill="#F1682B" d="M16 25.297l4.97-1.378 1.17-13.1H16z"/><path fill="#EBEBEB" d="M16 16.506h-2.488l-.172-1.925H16V12.7h-4.716l.046.505.462 5.182H16zM16 21.39l-.008.002-2.094-.566-.134-1.5h-1.888l.264 2.953 3.85 1.068.01-.002z"/><g fill="#020202"><path d="M9.888 5.4h.956v.944h.874V5.4h.956v2.858h-.956v-.956h-.874v.957h-.956V5.4zM13.93 6.35h-.84V5.4h2.637v.948h-.84v1.91h-.957v-1.91zM16.146 5.4h.995l.614 1.005.613-1.005h.996v2.858h-.95V6.842l-.66 1.017h-.015L17.08 6.84V8.26h-.935V5.4zM19.84 5.4h.955v1.914h1.344v.944h-2.3V5.4z"/></g><path fill="#fff" d="M15.994 16.506v1.88h2.315l-.22 2.438-2.096.567v1.958l3.854-1.07.03-.317.44-4.95.045-.504h-.506zM15.994 12.7V14.58h4.54l.037-.422.086-.953.045-.505z"/></svg>