<svg xmlns="http://www.w3.org/2000/svg" xmlns:xlink="http://www.w3.org/1999/xlink" width="32" height="32" viewBox="0 0 32 32"><defs><path id="a" d="M5.984 5.4h20.03v21.2H5.985z"/></defs><clipPath id="b"><use xlink:href="#a" overflow="visible"/></clipPath><path clip-path="url(#b)" fill="#0096DA" d="M8.977 26.6H8.62c-.034-.007-.07-.017-.104-.02-.117-.016-.235-.023-.352-.045-.512-.096-.956-.32-1.318-.7-.277-.288-.47-.628-.607-1.003-.14-.383-.21-.78-.24-1.184-.032-.383-.008-.762.065-1.137.05-.253.127-.503.196-.75.504-1.81 1.205-3.536 2.135-5.17 1.56-2.735 3.62-5.013 6.21-6.813.148-.104.127-.057.128-.254 0-.047-.006-.093-.01-.143-.22.065-1.04.492-1.61.836-2.41 1.458-4.455 3.31-6.104 5.628 0-.085-.003-.146 0-.206.025-.583.114-1.156.257-1.722.3-1.197.812-2.294 1.582-3.264.598-.754 1.308-1.383 2.137-1.874.714-.422 1.473-.74 2.27-.966.732-.208 1.48-.33 2.24-.373.45-.026.9-.022 1.35.012.406.03.81.082 1.207.173.058.013.1 0 .146-.032.4-.28.816-.54 1.242-.78.788-.448 1.602-.835 2.47-1.105.413-.13.835-.227 1.27-.27.103-.01.206-.025.31-.038h.494c.034.008.068.018.104.025.16.032.324.053.48.096.732.2 1.324.753 1.425 1.69.002.02.015.042.022.063v.77c-.008.034-.02.068-.023.103-.01.082-.014.164-.027.245-.094.567-.258 1.113-.46 1.648-.01.023-.022.045-.034.068-.096-.072-.096-.072-.064-.16.18-.52.306-1.052.345-1.604.02-.324.007-.644-.07-.96-.126-.525-.413-.93-.907-1.174-.33-.163-.685-.225-1.048-.24-.55-.025-1.088.06-1.615.208-1.163.327-2.22.874-3.226 1.534-.02.012-.033.03-.056.05.034.012.058.022.083.027.076.02.154.034.23.053.885.227 1.715.58 2.49 1.064 1.734 1.08 2.89 2.602 3.447 4.57.172.608.273 1.23.322 1.86.044.564.043 1.13.012 1.695-.002.03-.007.062-.012.104H13.715c-.042 0-.083.006-.137.008 0 .055-.003.1 0 .145.008.125.014.25.025.374.038.403.137.79.305 1.157.327.717.863 1.195 1.628 1.406.437.12.88.14 1.33.094.35-.04.682-.137.99-.31.525-.29.893-.724 1.136-1.267.058-.13.102-.264.154-.4h6.168c-.03.096-.057.184-.088.27-.365 1.006-.893 1.922-1.574 2.746-.76.92-1.668 1.654-2.738 2.186-1.182.586-2.44.865-3.752.916-.677.027-1.354.012-2.03-.037-.212-.015-.423-.044-.635-.07-.057-.007-.1 0-.146.036-.353.268-.723.512-1.103.738-.795.477-1.625.875-2.513 1.146-.538.166-1.087.28-1.65.31-.037.003-.072.013-.107.02M8.53 20.72l-.06.09c-.054.094-.11.188-.16.283-.386.733-.677 1.495-.747 2.33-.034.405-.008.808.128 1.194.162.46.18.494.633.758.402.234.85.31 1.307.322.5.012.99-.064 1.472-.188 1.02-.256 1.973-.678 2.887-1.19.024-.015.046-.032.085-.06-.048-.014-.078-.02-.11-.03-.242-.065-.488-.124-.73-.198-1.188-.36-2.28-.906-3.244-1.697-.55-.452-1.042-.96-1.422-1.57l-.038-.042m5.038-6.367c.148.022 5.557.015 5.635-.006 0-.026.006-.055.005-.084-.015-.366-.08-.724-.212-1.066-.296-.767-.834-1.273-1.633-1.48-.684-.174-1.37-.156-2.042.058-.64.203-1.115.61-1.423 1.21-.192.377-.293.78-.328 1.2-.006.054-.002.11-.002.17"/></svg>