<svg xmlns="http://www.w3.org/2000/svg" width="32" height="32" viewBox="0 0 32 32"><path fill="#E4A227" d="M9.858 24.896L8.492 9.57h15.016L22.14 24.896l-6.15 1.706z"/><path fill="#F0BF26" d="M15.987 25.277l4.968-1.377 1.17-13.095h-6.138z"/><path fill="#151515" d="M18.672 6.185h-1.246l1.297 1.406v.67h-2.67v-.783h1.295L16.052 6.07V5.4h2.62z"/><path fill="#020202" d="M15.577 5.4V8.26h-2.3v-.944h1.344V5.4h.957z"/><path fill="#fff" d="M19.912 13.41"/><path fill="#fff" d="M17.742 14.51l-.033 2.02 2.76-.08-.515 5.773-3.476.965v-1.956l1.717-.462.22-2.44h-1.938v-5.734h4.33l-.17 1.88z"/><path fill="#EBEBEB" d="M15.425 12.58v10.622l-4.096-1.177-.265-2.95h1.887l.126 1.405 1.24.38-.166-6.4h-2.97l-.168-1.88h4.41z"/></svg>