<svg xmlns="http://www.w3.org/2000/svg" width="32" height="32" viewBox="0 0 32 32"><linearGradient id="a" gradientUnits="userSpaceOnUse" x1="97.03" y1="-235.582" x2="94.291" y2="-251.118" gradientTransform="matrix(.993 -.116 .116 .993 -50.683 269.806)"><stop offset="1" stop-color="#00B0D8"/><stop offset="1" stop-color="#0074A9"/><stop offset="1" stop-color="#00689F"/></linearGradient><circle fill="url(#a)" cx="16" cy="16.975" r="7.885"/><path fill="#EDEDED" d="M16.01 9.088c3.944 0 7.352 2.955 7.82 6.968.51 4.327-2.587 8.243-6.912 8.75-.312.038-.62.056-.927.056-3.944 0-7.35-2.955-7.822-6.97-.507-4.325 2.59-8.243 6.915-8.75.31-.036.62-.054.927-.054m0-1.738v1.738V7.35c-.375 0-.755.022-1.13.066-2.553.3-4.837 1.575-6.43 3.592-1.595 2.018-2.308 4.534-2.008 7.087.568 4.85 4.674 8.506 9.55 8.506.374 0 .753-.02 1.128-.065 2.553-.3 4.837-1.574 6.43-3.592 1.596-2.018 2.31-4.533 2.01-7.088-.57-4.85-4.674-8.505-9.55-8.505z"/><g fill="#fff"><path d="M13.596 17.322c-.155-1.328.795-2.53 2.124-2.688 1.327-.155 2.53.795 2.686 2.124.156 1.328-.794 2.53-2.122 2.688-1.33.155-2.533-.795-2.688-2.124zm.123-.014c.15 1.26 1.288 2.16 2.548 2.016 1.26-.15 2.16-1.29 2.014-2.55-.15-1.26-1.288-2.16-2.548-2.016-1.26.15-2.16 1.29-2.015 2.55zM15.702 14.64c.318-.038.628-.01.918.073l-1.213-2.728-.547 2.92c.254-.136.537-.23.842-.266zM14.165 15.544c.1-.127.22-.228.354-.302l-1.407-.54.847 1.237c.04-.14.108-.275.205-.396zM17.903 18.472c-.1.127-.222.227-.354.303l1.404.54-.846-1.238c-.043.14-.11.274-.205.395zM14.534 18.923c-.127-.1-.228-.22-.302-.354l-.54 1.405 1.237-.848c-.14-.04-.275-.108-.396-.204zM17.46 15.185c.128.1.23.22.303.354l.54-1.406-1.236.847c.14.04.273.11.394.205zM16.3 19.438c-.317.04-.628.01-.918-.072l1.214 2.727.547-2.92c-.254.137-.538.23-.842.265zM13.672 17.33c-.037-.316-.01-.627.073-.918l-2.727 1.214 2.92.548c-.136-.255-.23-.538-.266-.843zM18.35 16.746c.036.318.007.63-.075.92l2.728-1.214-2.92-.548c.136.255.23.537.266.842z"/></g><linearGradient id="b" gradientUnits="userSpaceOnUse" x1="90.284" y1="-177.584" x2="89.012" y2="-178.856" gradientTransform="matrix(.999 -.046 .046 .999 -62.964 196.373)"><stop offset="1" stop-color="#EE4036"/><stop offset="1" stop-color="#F05A28"/></linearGradient><path fill="url(#b)" d="M15.323 16.354l5.625-4.83-4.297 6.043z"/><linearGradient id="c" gradientUnits="userSpaceOnUse" x1="204.978" y1="1578.75" x2="206.777" y2="1578.75" gradientTransform="matrix(.739 .674 -.674 .739 925.838 -1285.188)"><stop offset="1" stop-color="#F2F2F2"/><stop offset="1" stop-color="#ccc"/></linearGradient><path fill="url(#c)" d="M16.65 17.568l-5.626 4.83 4.3-6.043z"/><path fill="#D1D1D1" d="M13.005 6.48c0-.615.613-1.07 1.334-1.08.72-.007 1.342.436 1.355 1.05 0 .614-.612 1.07-1.333 1.08-.72.005-1.343-.437-1.357-1.05zm.65-.506c-.17.136-.267.312-.265.5.002.19.102.363.276.495.174.13.42.213.692.21.272-.003.516-.09.687-.226.17-.136.268-.312.266-.5 0-.19-.102-.363-.276-.496-.174-.13-.42-.214-.69-.21h-.002c-.272.003-.516.09-.686.226z"/><path d="M13.003 6.48c0-.613.612-1.07 1.333-1.078.72-.007 1.343.436 1.356 1.05 0 .613-.612 1.07-1.333 1.078-.72.008-1.344-.435-1.357-1.05zm.65-.503c-.17.136-.268.312-.266.5.002.19.102.363.276.496.174.13.42.214.692.21.272-.002.516-.09.687-.225.17-.136.268-.312.266-.5-.002-.19-.102-.363-.277-.495-.173-.13-.418-.214-.69-.21-.273 0-.516.09-.687.224z" fill="none"/></svg>