<svg xmlns="http://www.w3.org/2000/svg" width="32" height="32" viewBox="0 0 32 32"><circle fill="#218E9D" cx="15.955" cy="15.776" r="10.008"/><g fill="#ED6623"><path d="M8.036 20.494l-.004-.004v-.004zM7.762 12.225l-.012.023-.007.003.005-.01c.006-.004.006-.01.01-.015h.004zM8.924 21.205l-.006-.004h.003zM23.012 19.81v.006c-.007.006-.012.013-.017.02v-.007c.006-.008.01-.014.017-.02zM21.324 9.99c-.552-.33-1.21-.646-1.97-.948.115.04 1.03.36 1.97.948z"/></g><path fill="#ED6623" d="M23.012 19.81v.006c-.007.006-.012.013-.017.02v-.007c.006-.008.01-.014.017-.02z"/><path fill="#ED6623" d="M23.012 19.81v.006c-.007.006-.012.013-.017.02v-.007c.006-.008.01-.014.017-.02z"/><path fill="#BE4E27" d="M14.85 12.756c-.766.244-1.418.533-1.96.856-.35-.886-.443-1.753-.294-2.6h.005v-.02l.185.146.612.597c.24.23.434.364.588.41.437.178.726.382.866.61z"/><path fill="#F3DAAA" d="M12.544 13.736c.29.155.474.334.563.532.533-.492 1.006-.85 1.41-1.08.18-.094.282-.238.317-.433-.064.06-.174.1-.328.124-.766.244-1.42.533-1.962.856z"/><path fill="#010101" d="M13.99 12.13l-.005.015c.438.18.727.383.866.61.155-.023.265-.063.33-.123.004-.005.01-.01.015-.01l.005-.005.02-.02c.104-.155.07-.28-.11-.39-.373.022-.747-.004-1.12-.078z"/><path fill="#ED6623" d="M17.068 18.7c-.184-.17-.41-.172-.665 0 .245-.23.48-.18.665 0z"/><path fill="#ED6623" d="M7.762 12.225l-.012.023-.007.003.005-.01c.006-.004.006-.01.01-.015h.004z"/><path fill="#ED6623" d="M7.762 12.225l-.012.023-.007.003.005-.01c.006-.004.006-.01.01-.015h.004z"/><path fill="#ED6623" d="M8.036 20.494l-.004-.004v-.004z"/><path fill="#ED6623" d="M17.068 18.7c-.184-.17-.41-.172-.665 0 .245-.23.48-.18.665 0z"/><path fill="#ED6623" d="M23.012 19.81v.006c-.007.006-.012.013-.017.02v-.007c.006-.008.01-.014.017-.02z"/><g fill="#ED6623"><path d="M20.724 8.938c-.513-.094-.975-.06-1.382.1.575-.276 1.328-.112 1.382-.1zM23.498 13.154c.078-1.408-1.063-2.47-2.17-3.162 1.564.937 2.288 1.99 2.17 3.162zM26.16 14.658l-.068.064c-.013-.52-.054-1.02-.122-1.494.188.84.19 1.43.19 1.43z"/></g><g fill="#ED6623"><path d="M7.762 12.225c-.03.06-.013 0 0 0-.004.007 0 0 0 0zM8.03 20.486c0 .004.003.006.006.008l-.005-.008c.002.002.003.002 0 0zm.89.713c-.004 0-.003.003.004.005L8.92 21.2s.002 0 0 0zM26.396 13.598c-.02.157-.06 1.064-.305 1.125-.025-1.097-.177-2.2-.54-3.24.04.207.068.415.084.625-1.17-3.113-4.103-4.54-7.318-4.5 0 0 1.638.172 2.41 1.33-.458-.09-.947-.07-1.385.1 1.7.593 4.376 1.952 4.157 4.117-.203-.318-.497-.553-.86-.662.355 1.385.574 2.925.13 4.316-.14-.426-.306-1.077-.684-1.37.216 1.766.134 3.813-1.15 5.188.158-.54.293-1.126.234-1.693-1.39 2.08-3.436 3.41-5.974 2.584-.835-.28-1.582-.772-2.2-1.396 1.36.114 2.452-.3 3.557-1.015.605-.394 2.088-.46.965-1.277-1.557-1.133-2.862.94-4.413-.053-.383-.263-1.32-.917-1.398-1.414-.084-.53.676-.816.42-.838.578.047 1.143.16 1.7.32.112-.634-.095-1.524-.58-1.985-.645-.615-.775-1.513-.703-2.424.097-1.2.645-2.093 1.688-2.795-1.08.134-2.053.656-2.833 1.404-.5-.184-1.045-.19-1.565-.097-.282.052-.783.347-1.028.347.097-.25-.01-.098-.287-.392-.503-.532-.677-1.338-.783-2.035-1.02.998-1.122 2.67-1.105 4.007-.57.785-1.164 1.645-1.203 2.655.047-.08.06-.003.043.227l.617-.502c-2.458 6.155 3.796 12.215 9.68 12.338 3.03.063 5.728-1.29 7.72-3.53 1.97-2.418 3.77-6.282 2.912-9.47-.074.57.274 1.015 0 0zM17.068 18.7c-.184-.17-.41-.172-.665 0 .245-.23.48-.18.665 0zM7.75 12.248c-.017.01.032-.062 0 0 0 0 .004-.008 0 0zm.282 8.242v-.004l.004.008c0-.002-.003-.003-.004-.004 0-.002 0 0 0 0zm.886.71c.003-.003.005 0 .006.005l-.006-.004s.002.003 0 0zm14.093-1.385c-.037.038-.006.003.002-.005v.005c-.007.006 0-.002 0 0z"/></g></svg>