<svg xmlns="http://www.w3.org/2000/svg" width="32" height="32" viewBox="0 0 32 32"><g fill="#1169AE"><path d="M6.394 10.38c-.53.76-.916 1.618-1.142 2.518-.223.885-.294 1.806-.235 2.716.06.924.25 1.838.546 2.715.15.44.326.873.528 1.293.233.485.503.946.792 1.4.295.46.636.896.994 1.312.357.414.744.804 1.152 1.168.41.365.845.708 1.3 1.017.457.313.933.588 1.422.845.485.255.995.47 1.51.653.26.093.524.172.788.254.23.072.472.107.71.145.824.128 1.657.195 2.49.183.72-.01 1.437-.082 2.14-.224.62-.125 1.227-.305 1.812-.54.522-.213 1.026-.47 1.504-.77.43-.27.836-.573 1.218-.906.34-.297.657-.616.953-.956.254-.29.49-.597.71-.914.175-.254.338-.516.488-.784.103-.185.2-.373.288-.564.04-.084.077-.17.11-.256l.003-.006c-.513.667-1.134 1.246-1.832 1.714-.69.463-1.452.815-2.246 1.062-.816.254-1.666.397-2.52.447-.885.052-1.773.004-2.65-.13-.47-.07-.938-.162-1.396-.3-.524-.156-1.043-.34-1.542-.567-.506-.23-1-.482-1.476-.773-.47-.287-.92-.605-1.35-.95-.852-.677-1.614-1.47-2.264-2.342-.556-.745-1.023-1.553-1.384-2.41-.356-.848-.61-1.74-.738-2.65-.128-.903-.134-1.825.003-2.727.137-.905.418-1.787.84-2.6M12.442 8.02c-.522.75-.852 1.623-.986 2.526-.134.9-.078 1.825.138 2.708.232.95.655 1.847 1.21 2.652.14.204.28.41.434.604.077.096.157.19.246.274.097.094.188.192.282.29.386.392.802.75 1.25 1.073.44.316.908.592 1.396.826.246.118.498.226.753.32.13.046.26.092.39.135.128.04.255.087.384.12.114.03.234.045.353.063.11.018.223.032.334.046.214.025.428.046.643.06.396.028.794.035 1.19.017.685-.03 1.366-.134 2.022-.328.552-.163 1.085-.392 1.58-.684.428-.252.827-.55 1.19-.89.308-.29.59-.61.84-.95.2-.272.38-.56.54-.858.107-.2.204-.406.288-.617.03-.075.06-.15.083-.23-.46.662-1.056 1.223-1.736 1.65-.706.445-1.497.746-2.315.902-.886.17-1.8.172-2.688.032-1.04-.165-2.06-.52-2.977-1.036-.877-.494-1.674-1.12-2.352-1.866-.63-.692-1.157-1.48-1.534-2.338-.387-.88-.615-1.83-.64-2.792-.023-.97.16-1.946.568-2.827.08-.172.17-.34.267-.505M17.528 6.257c-.538.793-.776 1.758-.688 2.71.085.92.464 1.796 1.02 2.528.532.7 1.23 1.272 2.012 1.67.422.212.876.392 1.343.47.42.07.844.107 1.268.096.655-.016 1.31-.152 1.897-.446.448-.224.85-.535 1.186-.907.247-.273.457-.577.64-.896.07-.12.132-.247.21-.36-.435.626-1.063 1.08-1.8 1.285-.818.23-1.692.167-2.514-.01-.985-.212-1.915-.695-2.655-1.38-.618-.57-1.115-1.28-1.427-2.064-.307-.77-.43-1.62-.273-2.438.075-.39.212-.767.404-1.114"/></g></svg>